<?xml version="1.0" encoding="iso-8859-1"?>
<!-- Generator: Adobe Illustrator 21.0.0, SVG Export Plug-In . SVG Version: 6.00 Build 0)  -->
<svg version="1.1" id="Layer_1" xmlns="http://www.w3.org/2000/svg" xmlns:xlink="http://www.w3.org/1999/xlink" x="0px" y="0px"
	 viewBox="0 0 24 24" enable-background="new 0 0 24 24" xml:space="preserve">
<g>
	<path fill="#303C42" d="M21,4.5C21,2.371582,19.3574219,0,17,0c-1.0888672,0-1.8623047,0.1318359-2.6103516,0.2587891
		C13.6611328,0.3828125,12.9736328,0.5,12,0.5s-1.6611328-0.1171875-2.3896484-0.2412109C8.8623047,0.1318359,8.0888672,0,7,0
		C4.6425781,0,3,2.371582,3,4.5c0,1.4376221,1.1191406,4.6359253,2.1455688,6.7072144
		c-0.4064941,2.4331055,0.203064,10.6716309,1.5790405,12.3709106C7.0068359,23.9267578,7.3017578,24,7.5,24
		c1.7099609,0,1.8574219-2.1132813,2.0136719-4.3510742C9.7236328,16.6342773,10.0244141,14.5,12,14.5
		s2.2763672,2.1342773,2.4863281,5.1489258C14.6425781,21.8867188,14.7900391,24,16.5,24
		c0.1982422,0,0.4931641-0.0732422,0.7753906-0.421875c1.3759766-1.6992188,1.9855347-9.937561,1.5790405-12.3707886
		C19.8808594,9.1359863,21,5.9376221,21,4.5z"/>
	<path fill="#FAFAFA" d="M16.5,23c-0.7773438,0-0.8984375-1.7387695-1.015625-3.4204102
		C15.2958984,16.8710938,15.0605469,13.5,12,13.5s-3.2958984,3.3710938-3.484375,6.0795898
		C8.3984375,21.2612305,8.2773438,23,7.5654297,23.0141602c-0.8078613-0.4868774-1.6781006-6.8713379-1.5565796-10.3348999
		c0.0371704,0.0489502,0.0758667,0.1046753,0.1112671,0.1459351c0.1816406,0.2114258,0.4980469,0.2348633,0.7050781,0.0541992
		c0.2099609-0.1796875,0.234375-0.4951172,0.0546875-0.7045898C5.9130859,11.0473633,4,6.1928711,4,4.5C4,2.8447266,5.2324219,1,7,1
		c1.0048828,0,1.703125,0.1191406,2.4423828,0.2446289C10.1796875,1.3701172,10.9414063,1.5,12,1.5
		s1.8203125-0.1298828,2.5576172-0.2553711C15.296875,1.1191406,15.9951172,1,17,1c1.7675781,0,3,1.8447266,3,3.5
		c0,1.6928711-1.9130859,6.5473633-2.8798828,7.6748047c-0.1796875,0.2094727-0.1552734,0.5249023,0.0546875,0.7045898
		C17.2685547,12.9604492,17.3847656,13,17.5,13c0.140625,0,0.2802734-0.059082,0.3798828-0.1748047
		c0.0354614-0.0413818,0.0742798-0.097168,0.1115112-0.1462402C18.1141357,16.1422119,17.251709,22.5252686,16.5,23z"/>
	<path fill="#FAFAFA" d="M16.5,23c-0.7773438,0-0.8984375-1.7387695-1.015625-3.4204102
		C15.2958984,16.8710938,15.0605469,13.5,12,13.5s-3.2958984,3.3710938-3.484375,6.0795898
		C8.3984375,21.2612305,8.2773438,23,7.5654297,23.0141602c-0.8078613-0.4868774-1.6781006-6.8713379-1.5565796-10.3348999
		c0.0371704,0.0489502,0.0758667,0.1046753,0.1112671,0.1459351c0.1816406,0.2114258,0.4980469,0.2348633,0.7050781,0.0541992
		c0.2099609-0.1796875,0.234375-0.4951172,0.0546875-0.7045898C5.9130859,11.0473633,4,6.1928711,4,4.5C4,2.8447266,5.2324219,1,7,1
		c1.0048828,0,1.703125,0.1191406,2.4423828,0.2446289C10.1796875,1.3701172,10.9414063,1.5,12,1.5
		s1.8203125-0.1298828,2.5576172-0.2553711C15.296875,1.1191406,15.9951172,1,17,1c1.7675781,0,3,1.8447266,3,3.5
		c0,1.6928711-1.9130859,6.5473633-2.8798828,7.6748047c-0.1796875,0.2094727-0.1552734,0.5249023,0.0546875,0.7045898
		C17.2685547,12.9604492,17.3847656,13,17.5,13c0.140625,0,0.2802734-0.059082,0.3798828-0.1748047
		c0.0354614-0.0413818,0.0742798-0.097168,0.1115112-0.1462402C18.1141357,16.1422119,17.251709,22.5252686,16.5,23z"/>
	<path opacity="0.1" d="M17.8798828,12.8251953C17.7802734,12.940918,17.640625,13,17.5,13
		c-0.1152344,0-0.2314453-0.0395508-0.3251953-0.1206055c-0.2099609-0.1796875-0.234375-0.4951172-0.0546875-0.7045898
		C18.0869141,11.0473633,20,6.1928711,20,4.5C20,2.8447266,18.7675781,1,17,1c-0.4880981,0-0.9022217,0.0288086-1.2854614,0.0721436
		C17.0733032,1.4193115,17.991394,3.3548584,17.991394,5.125c0,1.3178101-0.7560425,4.2496338-1.4494629,6.1483765
		c0.2460327,1.9979248-0.0601807,8.2526855-0.7944336,10.6573486C15.8897095,22.569397,16.1135864,23,16.5,23
		c0.751709-0.4747314,1.6141357-6.8577881,1.491394-10.3210449C17.9541626,12.7280273,17.9153442,12.7838135,17.8798828,12.8251953z
		"/>
	<linearGradient id="SVGID_1_" gradientUnits="userSpaceOnUse" x1="1.4421734" y1="6.8251386" x2="20.9214497" y2="15.9084749">
		<stop  offset="0" style="stop-color:#FFFFFF;stop-opacity:0.2"/>
		<stop  offset="1" style="stop-color:#FFFFFF;stop-opacity:0"/>
	</linearGradient>
	<path fill="url(#SVGID_1_)" d="M21,4.5C21,2.371582,19.3574219,0,17,0c-1.0888672,0-1.8623047,0.1318359-2.6103516,0.2587891
		C13.6611328,0.3828125,12.9736328,0.5,12,0.5s-1.6611328-0.1171875-2.3896484-0.2412109C8.8623047,0.1318359,8.0888672,0,7,0
		C4.6425781,0,3,2.371582,3,4.5c0,1.4376221,1.1191406,4.6359253,2.1455688,6.7072144
		c-0.4064941,2.4331055,0.203064,10.6716309,1.5790405,12.3709106C7.0068359,23.9267578,7.3017578,24,7.5,24
		c1.7099609,0,1.8574219-2.1132813,2.0136719-4.3510742C9.7236328,16.6342773,10.0244141,14.5,12,14.5
		s2.2763672,2.1342773,2.4863281,5.1489258C14.6425781,21.8867188,14.7900391,24,16.5,24
		c0.1982422,0,0.4931641-0.0732422,0.7753906-0.421875c1.3759766-1.6992188,1.9855347-9.937561,1.5790405-12.3707886
		C19.8808594,9.1359863,21,5.9376221,21,4.5z"/>
</g>
<g>
</g>
<g>
</g>
<g>
</g>
<g>
</g>
<g>
</g>
<g>
</g>
<g>
</g>
<g>
</g>
<g>
</g>
<g>
</g>
<g>
</g>
<g>
</g>
<g>
</g>
<g>
</g>
<g>
</g>
</svg>
